<mxfile host="Electron" agent="Mozilla/5.0 (Windows NT 10.0; Win64; x64) AppleWebKit/537.36 (KHTML, like Gecko) draw.io/26.2.2 Chrome/134.0.6998.178 Electron/35.1.2 Safari/537.36" version="26.2.2">
  <diagram id="C5RBs43oDa-KdzZeNtuy" name="Page-1">
    <mxGraphModel dx="753" dy="830" grid="1" gridSize="10" guides="1" tooltips="1" connect="1" arrows="1" fold="1" page="1" pageScale="1" pageWidth="827" pageHeight="1169" math="0" shadow="0">
      <root>
        <mxCell id="WIyWlLk6GJQsqaUBKTNV-0" />
        <mxCell id="WIyWlLk6GJQsqaUBKTNV-1" parent="WIyWlLk6GJQsqaUBKTNV-0" />
        <mxCell id="uiKHp9CyL3H5hJtIc4hJ-0" value="Get list of platforms from&amp;nbsp;&lt;div&gt;&lt;span style=&quot;background-color: transparent; color: light-dark(rgb(0, 0, 0), rgb(255, 255, 255));&quot;&gt;DB&lt;/span&gt;&lt;/div&gt;" style="strokeWidth=2;html=1;shape=mxgraph.flowchart.start_1;whiteSpace=wrap;" vertex="1" parent="WIyWlLk6GJQsqaUBKTNV-1">
          <mxGeometry x="363" y="50" width="100" height="60" as="geometry" />
        </mxCell>
        <mxCell id="uiKHp9CyL3H5hJtIc4hJ-10" value="Yes" style="edgeStyle=orthogonalEdgeStyle;rounded=0;orthogonalLoop=1;jettySize=auto;html=1;exitX=0;exitY=0.5;exitDx=0;exitDy=0;exitPerimeter=0;entryX=1;entryY=0.5;entryDx=0;entryDy=0;" edge="1" parent="WIyWlLk6GJQsqaUBKTNV-1" source="uiKHp9CyL3H5hJtIc4hJ-1" target="uiKHp9CyL3H5hJtIc4hJ-9">
          <mxGeometry relative="1" as="geometry" />
        </mxCell>
        <mxCell id="uiKHp9CyL3H5hJtIc4hJ-1" value="Add platform clicked?" style="strokeWidth=2;html=1;shape=mxgraph.flowchart.decision;whiteSpace=wrap;" vertex="1" parent="WIyWlLk6GJQsqaUBKTNV-1">
          <mxGeometry x="363" y="160" width="100" height="100" as="geometry" />
        </mxCell>
        <mxCell id="uiKHp9CyL3H5hJtIc4hJ-2" style="edgeStyle=orthogonalEdgeStyle;rounded=0;orthogonalLoop=1;jettySize=auto;html=1;exitX=0.5;exitY=1;exitDx=0;exitDy=0;exitPerimeter=0;entryX=0.5;entryY=0;entryDx=0;entryDy=0;entryPerimeter=0;" edge="1" parent="WIyWlLk6GJQsqaUBKTNV-1" source="uiKHp9CyL3H5hJtIc4hJ-0" target="uiKHp9CyL3H5hJtIc4hJ-1">
          <mxGeometry relative="1" as="geometry" />
        </mxCell>
        <mxCell id="uiKHp9CyL3H5hJtIc4hJ-29" style="edgeStyle=orthogonalEdgeStyle;rounded=0;orthogonalLoop=1;jettySize=auto;html=1;entryX=0;entryY=0.5;entryDx=0;entryDy=0;" edge="1" parent="WIyWlLk6GJQsqaUBKTNV-1" source="uiKHp9CyL3H5hJtIc4hJ-3">
          <mxGeometry relative="1" as="geometry">
            <mxPoint x="510" y="360" as="targetPoint" />
          </mxGeometry>
        </mxCell>
        <mxCell id="uiKHp9CyL3H5hJtIc4hJ-3" value="Remove&lt;div&gt;platform&lt;/div&gt;&lt;div&gt;clicked?&lt;/div&gt;" style="strokeWidth=2;html=1;shape=mxgraph.flowchart.decision;whiteSpace=wrap;" vertex="1" parent="WIyWlLk6GJQsqaUBKTNV-1">
          <mxGeometry x="363" y="310" width="100" height="100" as="geometry" />
        </mxCell>
        <mxCell id="uiKHp9CyL3H5hJtIc4hJ-4" value="No" style="edgeStyle=orthogonalEdgeStyle;rounded=0;orthogonalLoop=1;jettySize=auto;html=1;exitX=0.5;exitY=1;exitDx=0;exitDy=0;exitPerimeter=0;entryX=0.5;entryY=0;entryDx=0;entryDy=0;entryPerimeter=0;" edge="1" parent="WIyWlLk6GJQsqaUBKTNV-1" source="uiKHp9CyL3H5hJtIc4hJ-1" target="uiKHp9CyL3H5hJtIc4hJ-3">
          <mxGeometry relative="1" as="geometry" />
        </mxCell>
        <mxCell id="uiKHp9CyL3H5hJtIc4hJ-16" value="Yes" style="edgeStyle=orthogonalEdgeStyle;rounded=0;orthogonalLoop=1;jettySize=auto;html=1;exitX=0;exitY=0.5;exitDx=0;exitDy=0;exitPerimeter=0;entryX=1;entryY=0.5;entryDx=0;entryDy=0;" edge="1" parent="WIyWlLk6GJQsqaUBKTNV-1" source="uiKHp9CyL3H5hJtIc4hJ-5" target="uiKHp9CyL3H5hJtIc4hJ-15">
          <mxGeometry relative="1" as="geometry" />
        </mxCell>
        <mxCell id="uiKHp9CyL3H5hJtIc4hJ-5" value="Edit platform clicked?" style="strokeWidth=2;html=1;shape=mxgraph.flowchart.decision;whiteSpace=wrap;" vertex="1" parent="WIyWlLk6GJQsqaUBKTNV-1">
          <mxGeometry x="363" y="460" width="100" height="100" as="geometry" />
        </mxCell>
        <mxCell id="uiKHp9CyL3H5hJtIc4hJ-6" value="No" style="edgeStyle=orthogonalEdgeStyle;rounded=0;orthogonalLoop=1;jettySize=auto;html=1;exitX=0.5;exitY=1;exitDx=0;exitDy=0;exitPerimeter=0;entryX=0.5;entryY=0;entryDx=0;entryDy=0;entryPerimeter=0;" edge="1" parent="WIyWlLk6GJQsqaUBKTNV-1" source="uiKHp9CyL3H5hJtIc4hJ-3" target="uiKHp9CyL3H5hJtIc4hJ-5">
          <mxGeometry relative="1" as="geometry" />
        </mxCell>
        <mxCell id="uiKHp9CyL3H5hJtIc4hJ-27" value="Yes" style="edgeStyle=orthogonalEdgeStyle;rounded=0;orthogonalLoop=1;jettySize=auto;html=1;exitX=0.5;exitY=1;exitDx=0;exitDy=0;exitPerimeter=0;entryX=0.5;entryY=0;entryDx=0;entryDy=0;" edge="1" parent="WIyWlLk6GJQsqaUBKTNV-1" source="uiKHp9CyL3H5hJtIc4hJ-7" target="uiKHp9CyL3H5hJtIc4hJ-26">
          <mxGeometry relative="1" as="geometry" />
        </mxCell>
        <mxCell id="uiKHp9CyL3H5hJtIc4hJ-7" value="Save button clicked?" style="strokeWidth=2;html=1;shape=mxgraph.flowchart.decision;whiteSpace=wrap;" vertex="1" parent="WIyWlLk6GJQsqaUBKTNV-1">
          <mxGeometry x="363" y="610" width="100" height="100" as="geometry" />
        </mxCell>
        <mxCell id="uiKHp9CyL3H5hJtIc4hJ-8" value="No" style="edgeStyle=orthogonalEdgeStyle;rounded=0;orthogonalLoop=1;jettySize=auto;html=1;exitX=0.5;exitY=1;exitDx=0;exitDy=0;exitPerimeter=0;entryX=0.5;entryY=0;entryDx=0;entryDy=0;entryPerimeter=0;" edge="1" parent="WIyWlLk6GJQsqaUBKTNV-1" source="uiKHp9CyL3H5hJtIc4hJ-5" target="uiKHp9CyL3H5hJtIc4hJ-7">
          <mxGeometry relative="1" as="geometry" />
        </mxCell>
        <mxCell id="uiKHp9CyL3H5hJtIc4hJ-9" value="Show name dialog" style="whiteSpace=wrap;html=1;strokeWidth=2;" vertex="1" parent="WIyWlLk6GJQsqaUBKTNV-1">
          <mxGeometry x="190" y="130" width="120" height="60" as="geometry" />
        </mxCell>
        <mxCell id="uiKHp9CyL3H5hJtIc4hJ-13" value="Yes" style="edgeStyle=orthogonalEdgeStyle;rounded=0;orthogonalLoop=1;jettySize=auto;html=1;exitX=0.5;exitY=1;exitDx=0;exitDy=0;exitPerimeter=0;entryX=0.5;entryY=0;entryDx=0;entryDy=0;" edge="1" parent="WIyWlLk6GJQsqaUBKTNV-1" source="uiKHp9CyL3H5hJtIc4hJ-11" target="uiKHp9CyL3H5hJtIc4hJ-14">
          <mxGeometry relative="1" as="geometry">
            <mxPoint x="249.75862068965523" y="370" as="targetPoint" />
          </mxGeometry>
        </mxCell>
        <mxCell id="uiKHp9CyL3H5hJtIc4hJ-18" value="No" style="edgeStyle=orthogonalEdgeStyle;rounded=0;orthogonalLoop=1;jettySize=auto;html=1;entryX=0.247;entryY=0.262;entryDx=0;entryDy=0;entryPerimeter=0;" edge="1" parent="WIyWlLk6GJQsqaUBKTNV-1" source="uiKHp9CyL3H5hJtIc4hJ-11" target="uiKHp9CyL3H5hJtIc4hJ-1">
          <mxGeometry x="-0.572" relative="1" as="geometry">
            <mxPoint x="350" y="140" as="targetPoint" />
            <Array as="points">
              <mxPoint x="160" y="290" />
              <mxPoint x="160" y="120" />
              <mxPoint x="388" y="120" />
            </Array>
            <mxPoint as="offset" />
          </mxGeometry>
        </mxCell>
        <mxCell id="uiKHp9CyL3H5hJtIc4hJ-11" value="Dialog&lt;div&gt;accepted?&lt;/div&gt;" style="strokeWidth=2;html=1;shape=mxgraph.flowchart.decision;whiteSpace=wrap;" vertex="1" parent="WIyWlLk6GJQsqaUBKTNV-1">
          <mxGeometry x="200" y="240" width="100" height="100" as="geometry" />
        </mxCell>
        <mxCell id="uiKHp9CyL3H5hJtIc4hJ-12" style="edgeStyle=orthogonalEdgeStyle;rounded=0;orthogonalLoop=1;jettySize=auto;html=1;exitX=0.5;exitY=1;exitDx=0;exitDy=0;entryX=0.5;entryY=0;entryDx=0;entryDy=0;entryPerimeter=0;" edge="1" parent="WIyWlLk6GJQsqaUBKTNV-1" source="uiKHp9CyL3H5hJtIc4hJ-9" target="uiKHp9CyL3H5hJtIc4hJ-11">
          <mxGeometry relative="1" as="geometry" />
        </mxCell>
        <mxCell id="uiKHp9CyL3H5hJtIc4hJ-17" style="edgeStyle=orthogonalEdgeStyle;rounded=0;orthogonalLoop=1;jettySize=auto;html=1;entryX=0.5;entryY=0;entryDx=0;entryDy=0;" edge="1" parent="WIyWlLk6GJQsqaUBKTNV-1" source="uiKHp9CyL3H5hJtIc4hJ-14" target="uiKHp9CyL3H5hJtIc4hJ-15">
          <mxGeometry relative="1" as="geometry" />
        </mxCell>
        <mxCell id="uiKHp9CyL3H5hJtIc4hJ-14" value="Add new platform to list" style="whiteSpace=wrap;html=1;strokeWidth=2;" vertex="1" parent="WIyWlLk6GJQsqaUBKTNV-1">
          <mxGeometry x="190" y="390" width="120" height="60" as="geometry" />
        </mxCell>
        <mxCell id="uiKHp9CyL3H5hJtIc4hJ-15" value="Show platform editor" style="whiteSpace=wrap;html=1;strokeWidth=2;" vertex="1" parent="WIyWlLk6GJQsqaUBKTNV-1">
          <mxGeometry x="190" y="500" width="120" height="60" as="geometry" />
        </mxCell>
        <mxCell id="uiKHp9CyL3H5hJtIc4hJ-25" value="No" style="edgeStyle=orthogonalEdgeStyle;rounded=0;orthogonalLoop=1;jettySize=auto;html=1;exitX=0;exitY=0.5;exitDx=0;exitDy=0;exitPerimeter=0;entryX=1;entryY=0.5;entryDx=0;entryDy=0;" edge="1" parent="WIyWlLk6GJQsqaUBKTNV-1" source="uiKHp9CyL3H5hJtIc4hJ-20" target="uiKHp9CyL3H5hJtIc4hJ-24">
          <mxGeometry relative="1" as="geometry" />
        </mxCell>
        <mxCell id="uiKHp9CyL3H5hJtIc4hJ-20" value="Platform&lt;div&gt;editor saved?&lt;/div&gt;" style="strokeWidth=2;html=1;shape=mxgraph.flowchart.decision;whiteSpace=wrap;" vertex="1" parent="WIyWlLk6GJQsqaUBKTNV-1">
          <mxGeometry x="200" y="610" width="100" height="100" as="geometry" />
        </mxCell>
        <mxCell id="uiKHp9CyL3H5hJtIc4hJ-21" style="edgeStyle=orthogonalEdgeStyle;rounded=0;orthogonalLoop=1;jettySize=auto;html=1;entryX=0.5;entryY=0;entryDx=0;entryDy=0;entryPerimeter=0;" edge="1" parent="WIyWlLk6GJQsqaUBKTNV-1" source="uiKHp9CyL3H5hJtIc4hJ-15" target="uiKHp9CyL3H5hJtIc4hJ-20">
          <mxGeometry relative="1" as="geometry" />
        </mxCell>
        <mxCell id="uiKHp9CyL3H5hJtIc4hJ-23" value="Yes" style="edgeStyle=orthogonalEdgeStyle;rounded=0;orthogonalLoop=1;jettySize=auto;html=1;entryX=1;entryY=0.5;entryDx=0;entryDy=0;entryPerimeter=0;" edge="1" parent="WIyWlLk6GJQsqaUBKTNV-1" source="uiKHp9CyL3H5hJtIc4hJ-20" target="uiKHp9CyL3H5hJtIc4hJ-1">
          <mxGeometry x="-0.9007" relative="1" as="geometry">
            <Array as="points">
              <mxPoint x="250" y="1010" />
              <mxPoint x="660" y="1010" />
              <mxPoint x="660" y="210" />
            </Array>
            <mxPoint as="offset" />
          </mxGeometry>
        </mxCell>
        <mxCell id="uiKHp9CyL3H5hJtIc4hJ-24" value="Delete new platform from list" style="whiteSpace=wrap;html=1;strokeWidth=2;" vertex="1" parent="WIyWlLk6GJQsqaUBKTNV-1">
          <mxGeometry x="30" y="630" width="120" height="60" as="geometry" />
        </mxCell>
        <mxCell id="uiKHp9CyL3H5hJtIc4hJ-26" value="Write updated platform list to DB" style="whiteSpace=wrap;html=1;strokeWidth=2;" vertex="1" parent="WIyWlLk6GJQsqaUBKTNV-1">
          <mxGeometry x="353" y="760" width="120" height="60" as="geometry" />
        </mxCell>
        <mxCell id="uiKHp9CyL3H5hJtIc4hJ-32" value="Yes" style="edgeStyle=orthogonalEdgeStyle;rounded=0;orthogonalLoop=1;jettySize=auto;html=1;entryX=0.5;entryY=0;entryDx=0;entryDy=0;" edge="1" parent="WIyWlLk6GJQsqaUBKTNV-1" source="uiKHp9CyL3H5hJtIc4hJ-30" target="uiKHp9CyL3H5hJtIc4hJ-31">
          <mxGeometry relative="1" as="geometry" />
        </mxCell>
        <mxCell id="uiKHp9CyL3H5hJtIc4hJ-39" value="No" style="edgeStyle=orthogonalEdgeStyle;rounded=0;orthogonalLoop=1;jettySize=auto;html=1;" edge="1" parent="WIyWlLk6GJQsqaUBKTNV-1" source="uiKHp9CyL3H5hJtIc4hJ-30">
          <mxGeometry relative="1" as="geometry">
            <mxPoint x="660" y="360" as="targetPoint" />
          </mxGeometry>
        </mxCell>
        <mxCell id="uiKHp9CyL3H5hJtIc4hJ-30" value="Is platform&lt;div&gt;present in&amp;nbsp;&lt;div&gt;on-disk DB&lt;/div&gt;&lt;/div&gt;" style="strokeWidth=2;html=1;shape=mxgraph.flowchart.decision;whiteSpace=wrap;" vertex="1" parent="WIyWlLk6GJQsqaUBKTNV-1">
          <mxGeometry x="510" y="310" width="100" height="100" as="geometry" />
        </mxCell>
        <mxCell id="uiKHp9CyL3H5hJtIc4hJ-31" value="Show warning dialog" style="whiteSpace=wrap;html=1;strokeWidth=2;" vertex="1" parent="WIyWlLk6GJQsqaUBKTNV-1">
          <mxGeometry x="500" y="460" width="120" height="60" as="geometry" />
        </mxCell>
        <mxCell id="uiKHp9CyL3H5hJtIc4hJ-36" value="Yes" style="edgeStyle=orthogonalEdgeStyle;rounded=0;orthogonalLoop=1;jettySize=auto;html=1;entryX=0.5;entryY=0;entryDx=0;entryDy=0;" edge="1" parent="WIyWlLk6GJQsqaUBKTNV-1" source="uiKHp9CyL3H5hJtIc4hJ-33" target="uiKHp9CyL3H5hJtIc4hJ-35">
          <mxGeometry relative="1" as="geometry" />
        </mxCell>
        <mxCell id="uiKHp9CyL3H5hJtIc4hJ-37" value="No" style="edgeStyle=orthogonalEdgeStyle;rounded=0;orthogonalLoop=1;jettySize=auto;html=1;" edge="1" parent="WIyWlLk6GJQsqaUBKTNV-1" source="uiKHp9CyL3H5hJtIc4hJ-33">
          <mxGeometry relative="1" as="geometry">
            <mxPoint x="660" y="620" as="targetPoint" />
          </mxGeometry>
        </mxCell>
        <mxCell id="uiKHp9CyL3H5hJtIc4hJ-33" value="User accepted dialog?" style="strokeWidth=2;html=1;shape=mxgraph.flowchart.decision;whiteSpace=wrap;" vertex="1" parent="WIyWlLk6GJQsqaUBKTNV-1">
          <mxGeometry x="510" y="570" width="100" height="100" as="geometry" />
        </mxCell>
        <mxCell id="uiKHp9CyL3H5hJtIc4hJ-34" style="edgeStyle=orthogonalEdgeStyle;rounded=0;orthogonalLoop=1;jettySize=auto;html=1;entryX=0.5;entryY=0;entryDx=0;entryDy=0;entryPerimeter=0;" edge="1" parent="WIyWlLk6GJQsqaUBKTNV-1" source="uiKHp9CyL3H5hJtIc4hJ-31" target="uiKHp9CyL3H5hJtIc4hJ-33">
          <mxGeometry relative="1" as="geometry" />
        </mxCell>
        <mxCell id="uiKHp9CyL3H5hJtIc4hJ-38" style="edgeStyle=orthogonalEdgeStyle;rounded=0;orthogonalLoop=1;jettySize=auto;html=1;exitX=0.5;exitY=1;exitDx=0;exitDy=0;" edge="1" parent="WIyWlLk6GJQsqaUBKTNV-1" source="uiKHp9CyL3H5hJtIc4hJ-35">
          <mxGeometry relative="1" as="geometry">
            <mxPoint x="660" y="820" as="targetPoint" />
            <Array as="points">
              <mxPoint x="560" y="820" />
            </Array>
          </mxGeometry>
        </mxCell>
        <mxCell id="uiKHp9CyL3H5hJtIc4hJ-35" value="Delete platform from DB" style="whiteSpace=wrap;html=1;strokeWidth=2;" vertex="1" parent="WIyWlLk6GJQsqaUBKTNV-1">
          <mxGeometry x="500" y="720" width="120" height="60" as="geometry" />
        </mxCell>
        <mxCell id="uiKHp9CyL3H5hJtIc4hJ-42" value="Yes" style="edgeStyle=orthogonalEdgeStyle;rounded=0;orthogonalLoop=1;jettySize=auto;html=1;exitX=1;exitY=0.5;exitDx=0;exitDy=0;exitPerimeter=0;entryX=0;entryY=0.5;entryDx=0;entryDy=0;" edge="1" parent="WIyWlLk6GJQsqaUBKTNV-1" source="uiKHp9CyL3H5hJtIc4hJ-40" target="uiKHp9CyL3H5hJtIc4hJ-41">
          <mxGeometry x="-0.0811" y="-10" relative="1" as="geometry">
            <mxPoint as="offset" />
          </mxGeometry>
        </mxCell>
        <mxCell id="uiKHp9CyL3H5hJtIc4hJ-44" value="No" style="edgeStyle=orthogonalEdgeStyle;rounded=0;orthogonalLoop=1;jettySize=auto;html=1;" edge="1" parent="WIyWlLk6GJQsqaUBKTNV-1" source="uiKHp9CyL3H5hJtIc4hJ-40">
          <mxGeometry relative="1" as="geometry">
            <mxPoint x="660" y="990" as="targetPoint" />
            <Array as="points">
              <mxPoint x="413" y="990" />
            </Array>
          </mxGeometry>
        </mxCell>
        <mxCell id="uiKHp9CyL3H5hJtIc4hJ-40" value="Enable&amp;nbsp;&lt;div&gt;checkbox&amp;nbsp;&lt;/div&gt;&lt;div&gt;toggled&lt;/div&gt;" style="strokeWidth=2;html=1;shape=mxgraph.flowchart.decision;whiteSpace=wrap;" vertex="1" parent="WIyWlLk6GJQsqaUBKTNV-1">
          <mxGeometry x="363" y="870" width="100" height="100" as="geometry" />
        </mxCell>
        <mxCell id="uiKHp9CyL3H5hJtIc4hJ-43" style="edgeStyle=orthogonalEdgeStyle;rounded=0;orthogonalLoop=1;jettySize=auto;html=1;exitX=1;exitY=0.5;exitDx=0;exitDy=0;" edge="1" parent="WIyWlLk6GJQsqaUBKTNV-1" source="uiKHp9CyL3H5hJtIc4hJ-41">
          <mxGeometry relative="1" as="geometry">
            <mxPoint x="660" y="920.344827586207" as="targetPoint" />
          </mxGeometry>
        </mxCell>
        <mxCell id="uiKHp9CyL3H5hJtIc4hJ-41" value="Update platforms enable state in list" style="whiteSpace=wrap;html=1;strokeWidth=2;" vertex="1" parent="WIyWlLk6GJQsqaUBKTNV-1">
          <mxGeometry x="500" y="890" width="120" height="60" as="geometry" />
        </mxCell>
        <mxCell id="uiKHp9CyL3H5hJtIc4hJ-45" style="edgeStyle=orthogonalEdgeStyle;rounded=0;orthogonalLoop=1;jettySize=auto;html=1;entryX=0.5;entryY=0;entryDx=0;entryDy=0;entryPerimeter=0;" edge="1" parent="WIyWlLk6GJQsqaUBKTNV-1" source="uiKHp9CyL3H5hJtIc4hJ-26" target="uiKHp9CyL3H5hJtIc4hJ-40">
          <mxGeometry relative="1" as="geometry" />
        </mxCell>
      </root>
    </mxGraphModel>
  </diagram>
</mxfile>
